<?xml version="1.0" encoding="utf-8"?>
<!-- Generator: Adobe Illustrator 27.9.0, SVG Export Plug-In . SVG Version: 6.00 Build 0)  -->
<svg version="1.1" xmlns="http://www.w3.org/2000/svg" xmlns:xlink="http://www.w3.org/1999/xlink" x="0px" y="0px"
	 viewBox="0 0 2200 2200" style="enable-background:new 0 0 2200 2200;" xml:space="preserve">
<style type="text/css">
	.st0{fill:#FFFFFF;}
	.st1{fill:#165DF9;}
</style>
<g id="background">
	<rect class="st0" width="2200" height="2200"/>
</g>
<g id="Objects">
	<path class="st1" d="M1186.19,1281.82c-46.4,33.54-93.64,66.16-136.21,105.26c-4.29,3.94-9.6,5.91-14.92,5.91
		s-10.63-1.97-14.92-5.91c-42.57-39.11-89.8-71.73-136.21-105.26C763.62,1194.86,627.14,1072,656.06,897.68
		c17.34-104.51,103.23-176.73,203.05-165.95c73.16,7.9,138.58,56.88,175.96,123.8c37.38-66.91,102.8-115.9,175.96-123.8
		c99.82-10.78,185.71,61.45,203.05,165.95C1443,1072,1306.51,1194.86,1186.19,1281.82z"/>
</g>
</svg>
